<svg width="111" height="111" viewBox="0 0 111 111" fill="none" xmlns="http://www.w3.org/2000/svg">
<path d="M37.4404 46.0367L47.7862 56.3826M37.4404 56.3815L47.7862 46.0356" stroke="white" stroke-width="1.23333" stroke-linecap="round"/>
<path d="M74.4283 0C87.1593 0.294698 93.395 15.4391 85.3809 24.8847C92.6145 30.7598 97.5475 39.0074 99.3102 48.1735L109.408 93.5838C109.626 94.5712 109.717 95.574 109.763 96.4466L109.767 96.5423V96.6379C109.77 99.4819 108.931 102.263 107.355 104.627C105.779 106.992 103.537 108.833 100.916 109.917C98.294 111.001 95.4101 111.279 92.6305 110.716C89.8508 110.153 87.3009 108.773 85.3046 106.753C83.9737 108.095 82.392 109.159 80.65 109.886C78.908 110.613 77.0401 110.989 75.1533 110.99C73.266 110.992 71.397 110.619 69.6546 109.891C67.9121 109.164 66.3308 108.098 65.0021 106.753C63.6713 108.095 62.0895 109.159 60.3476 109.886C58.6056 110.613 56.7377 110.989 54.8509 110.99C52.9633 110.992 51.0942 110.618 49.3517 109.89C47.6092 109.162 46.028 108.094 44.6997 106.75C43.3591 108.11 41.7595 109.186 39.9961 109.915C38.2326 110.643 36.3411 111.009 34.434 110.99C27.206 110.94 21.4282 105.479 20.3978 98.6358C19.3562 99.2104 18.1863 99.5107 16.9975 99.5084C11.9715 99.5084 8.57887 94.3799 10.4717 89.6953L13.8682 81.5586C14.2994 80.5329 14.9596 79.6488 15.7763 78.9675C11.464 77.8117 7.27371 75.7297 3.59866 72.0096C1.66764 70.0692 1.01124 67.8226 1.29746 65.5377C1.48827 64.026 2.14085 62.4568 2.57209 61.4235L2.7629 60.9565L2.82396 60.8034L2.90029 60.6618C5.29308 55.9007 8.18198 52.062 11.7807 49.2452C14.8224 46.8716 18.3695 45.2344 22.1456 44.4611C22.222 44.22 22.3021 43.975 22.3861 43.7339C21.1125 41.63 20.3868 39.2386 20.2757 36.7798C20.1265 33.4761 21.0818 30.217 22.99 27.5198C24.8981 24.8227 27.6499 22.8419 30.8085 21.8918C32.0679 21.5091 32.9075 20.3609 32.9075 19.0597V19.0214C32.9075 10.8311 39.5096 4.20997 47.6763 4.20997C49.8134 4.20997 51.8361 4.66924 53.6679 5.47296C56.5682 6.77422 60.0028 6.27668 62.4452 4.20997C65.6574 1.51446 69.7057 0.0257784 73.894 0H74.4283ZM20.2375 66.9768H9.38409C12.46 69.9314 16.0892 71.4011 20.2375 72.1168V66.9768ZM20.2375 63.1495V56.8729C20.2375 55.5601 20.2986 54.2589 20.4207 52.9729C19.0083 53.5577 17.6821 54.3328 16.4785 55.2769C14.1926 57.0681 12.1127 59.6132 10.2122 63.1495H20.2375ZM91.8227 49.6662C90.3875 42.1236 86.2892 35.3526 80.2794 30.5949C74.2695 25.8373 66.7508 23.4118 59.1022 23.7634C41.6238 24.5173 27.87 39.2331 27.87 56.8729V96.4466C27.87 100.255 30.8848 103.313 34.4988 103.336H34.5141C35.6039 103.341 36.6785 103.079 37.6448 102.574C38.611 102.068 39.4397 101.334 40.0591 100.435L40.0667 100.423C42.3069 97.2847 47.0734 97.1317 49.3593 100.461C50.5958 102.214 52.5879 103.336 54.8509 103.336C55.9321 103.33 56.9962 103.065 57.9538 102.561C58.9114 102.058 59.7345 101.331 60.3539 100.442L60.3692 100.423C62.6055 97.2847 67.3758 97.1317 69.6618 100.461C70.8982 102.214 72.8903 103.336 75.1533 103.336C76.2345 103.33 77.2987 103.065 78.2563 102.561C79.2139 102.058 80.037 101.331 80.6564 100.442L80.6716 100.423C82.908 97.2847 87.6783 97.1317 89.9642 100.461C91.2007 102.214 93.1928 103.336 95.4558 103.336C99.1194 103.336 102.085 100.389 102.134 96.726C102.114 96.231 102.055 95.7383 101.959 95.2525L91.8342 49.7274L91.8227 49.6662Z" fill="white"/>
</svg>
