<svg width="111" height="111" viewBox="0 0 111 111" fill="none" xmlns="http://www.w3.org/2000/svg">
<path d="M91.02 26.0229C91.02 28.0181 91.8126 29.9316 93.2235 31.3424C94.6343 32.7532 96.5478 33.5458 98.543 33.5458C100.538 33.5458 102.452 32.7532 103.863 31.3424C105.273 29.9316 106.066 28.0181 106.066 26.0229C106.066 24.0276 105.273 22.1141 103.863 20.7033C102.452 19.2925 100.538 18.4999 98.543 18.4999C96.5478 18.4999 94.6343 19.2925 93.2235 20.7033C91.8126 22.1141 91.02 24.0276 91.02 26.0229Z" stroke="white" stroke-width="9" stroke-linecap="round"/>
<path d="M85.7585 58.1235L87.4286 58.8561C99.0872 64.3703 102.309 71.5073 102.309 81.3069V83.6544C102.309 85.7436 101.479 87.7473 100.002 89.2246C98.5245 90.7019 96.5209 91.5318 94.4316 91.5318H13.278C10.7021 91.5318 8.28367 90.2635 7.29111 87.8846C5.10906 82.6145 2.57251 72.0272 9.16595 58.8561C18.6977 39.8241 42.1489 35.6412 57.1712 43.5187L57.8802 43.881" stroke="white" stroke-width="9" stroke-linecap="round" stroke-linejoin="round"/>
<path d="M80.378 68.5927C87.6883 60.5734 88.0664 49.0172 81.2288 42.794C74.3911 36.5708 62.9294 38.0281 55.627 46.0474C48.9863 53.334 48.0646 63.5275 53.0668 69.9949C53.571 70.6566 54.146 71.2789 54.7762 71.8461" stroke="white" stroke-width="9" stroke-linecap="round"/>
<path d="M93.3602 31.4899L81.6543 43.1879" stroke="white" stroke-width="9" stroke-linecap="round" stroke-linejoin="round"/>
</svg>
