<svg width="82" height="82" viewBox="0 0 82 82" fill="none" xmlns="http://www.w3.org/2000/svg">
<mask id="mask0_1022_9697" style="mask-type:alpha" maskUnits="userSpaceOnUse" x="0" y="0" width="82" height="82">
<rect width="82" height="82" fill="#D9D9D9"/>
</mask>
<g mask="url(#mask0_1022_9697)">
<path d="M32.4346 17.0834V3.41675H39.0085V17.0834H32.4346ZM54.2926 26.4792L49.691 21.6959L58.9765 11.9584L63.5782 16.8272L54.2926 26.4792ZM58.73 44.4167V37.5834H71.8777V44.4167H58.73ZM58.9765 69.9563L49.691 60.3042L54.2926 55.5209L63.6604 65.0876L58.9765 69.9563ZM17.1504 26.4792L7.8649 16.8272L12.5488 11.9584L21.7521 21.6959L17.1504 26.4792ZM16 64.9167H30.7912C32.1607 64.9167 33.3248 64.4185 34.2835 63.422C35.2422 62.4254 35.7215 61.2154 35.7215 59.7917C35.7215 58.3681 35.2559 57.1581 34.3246 56.1615C33.3933 55.165 32.2429 54.6667 30.8733 54.6667H26.6825L25.0391 50.5667C24.2721 48.6876 23.0669 47.1928 21.4234 46.0824C19.78 44.972 17.9722 44.4167 16 44.4167C13.2609 44.4167 10.9327 45.4133 9.01532 47.4063C7.09795 49.3994 6.13927 51.8195 6.13927 54.6667C6.13927 57.514 7.09795 59.9341 9.01532 61.9272C10.9327 63.9202 13.2609 64.9167 16 64.9167ZM16 71.7501C11.4531 71.7501 7.5773 70.0845 4.37255 66.7532C1.1678 63.422 -0.43457 59.3931 -0.43457 54.6667C-0.43457 49.9404 1.1678 45.9115 4.37255 42.5803C7.5773 39.249 11.4531 37.5834 16 37.5834C19.2869 37.5834 22.2863 38.5088 24.998 40.3595C27.7097 42.2101 29.7229 44.7015 31.0377 47.8334C34.215 47.8334 36.8857 49.0577 39.0496 51.5063C41.2134 53.9549 42.2954 56.8876 42.2954 60.3042C42.1858 63.5501 41.0217 66.2692 38.803 68.4615C36.5844 70.6539 33.9137 71.7501 30.7912 71.7501H16ZM42.2954 60.3042C42.0215 59.1654 41.7476 58.0549 41.4737 56.973C41.1997 55.8911 40.9258 54.7806 40.6519 53.6417C43.1171 52.5598 45.103 50.8799 46.6095 48.6022C48.116 46.3244 48.8692 43.7904 48.8692 41.0001C48.8692 37.2417 47.5818 34.0244 45.0071 31.348C42.4323 28.6716 39.3372 27.3334 35.7215 27.3334C32.4346 27.3334 29.5586 28.4438 27.0934 30.6647C24.6282 32.8855 23.1765 35.7042 22.7382 39.1209C21.6426 38.8362 20.5195 38.5799 19.3691 38.3522C18.2187 38.1244 17.0957 37.8681 16 37.5834C16.767 32.5723 19.0267 28.4723 22.7793 25.2834C26.5319 22.0945 30.8459 20.5001 35.7215 20.5001C41.1997 20.5001 45.8562 22.4931 49.691 26.4792C53.5257 30.4654 55.4431 35.3056 55.4431 41.0001C55.4431 45.3848 54.2379 49.3282 51.8275 52.8303C49.417 56.3324 46.2397 58.8237 42.2954 60.3042Z" fill="black"/>
</g>
</svg>
