<svg width="24" height="24" viewBox="0 0 24 24" fill="none" xmlns="http://www.w3.org/2000/svg">
<mask id="mask0_1017_9686" style="mask-type:alpha" maskUnits="userSpaceOnUse" x="2" y="2" width="20" height="20">
<rect x="2" y="2" width="20" height="20" fill="#D9D9D9"/>
</mask>
<g mask="url(#mask0_1017_9686)">
<path d="M16.1666 8.66699C15.8194 8.66699 15.5242 8.54546 15.2812 8.30241C15.0381 8.05935 14.9166 7.76421 14.9166 7.41699C14.9166 7.18088 15.0346 6.86838 15.2708 6.47949C15.5069 6.0906 15.8055 5.70866 16.1666 5.33366C16.5277 5.70866 16.8263 6.0906 17.0624 6.47949C17.2985 6.86838 17.4166 7.18088 17.4166 7.41699C17.4166 7.76421 17.2951 8.05935 17.052 8.30241C16.8089 8.54546 16.5138 8.66699 16.1666 8.66699ZM18.2499 14.5003C17.6666 14.5003 17.1735 14.2989 16.7708 13.8962C16.368 13.4934 16.1666 13.0003 16.1666 12.417C16.1666 11.9309 16.3819 11.3302 16.8124 10.6149C17.243 9.89963 17.7221 9.25032 18.2499 8.66699C18.7777 9.25032 19.2569 9.89963 19.6874 10.6149C20.118 11.3302 20.3333 11.9309 20.3333 12.417C20.3333 13.0003 20.1319 13.4934 19.7291 13.8962C19.3263 14.2989 18.8333 14.5003 18.2499 14.5003ZM9.49992 17.0003H11.1666V15.3337H12.8333V13.667H11.1666V12.0003H9.49992V13.667H7.83325V15.3337H9.49992V17.0003ZM6.99992 20.3337C6.54159 20.3337 6.14922 20.1705 5.82284 19.8441C5.49645 19.5177 5.33325 19.1253 5.33325 18.667V12.0003C5.33325 10.7503 5.72909 9.66699 6.52075 8.75032C7.31242 7.83366 8.30547 7.2781 9.49992 7.08366V5.33366H7.83325V3.66699H12.8333C13.3055 3.66699 13.7499 3.73991 14.1666 3.88574C14.5833 4.03158 14.9721 4.23644 15.3333 4.50033L14.1249 5.70866C13.9305 5.59755 13.7256 5.50727 13.5103 5.43783C13.2951 5.36838 13.0694 5.33366 12.8333 5.33366H11.1666V7.08366C12.361 7.2781 13.3541 7.83366 14.1458 8.75032C14.9374 9.66699 15.3333 10.7503 15.3333 12.0003V18.667C15.3333 19.1253 15.1701 19.5177 14.8437 19.8441C14.5173 20.1705 14.1249 20.3337 13.6666 20.3337H6.99992ZM6.99992 18.667H13.6666V12.0003C13.6666 11.0837 13.3402 10.2989 12.6874 9.64616C12.0346 8.99338 11.2499 8.66699 10.3333 8.66699C9.41659 8.66699 8.63186 8.99338 7.97909 9.64616C7.32631 10.2989 6.99992 11.0837 6.99992 12.0003V18.667Z" fill="#1C1B1F"/>
</g>
</svg>
