<svg width="111" height="111" viewBox="0 0 111 111" fill="none" xmlns="http://www.w3.org/2000/svg">
<path d="M55.5 111C43.6607 111 33.6186 106.813 25.3736 98.4385C17.1286 90.0642 13.004 79.8624 13 67.8333C13 59.9194 14.2912 51.9542 16.8736 43.9375C19.456 35.9208 22.7952 28.6503 26.8914 22.126C30.9876 15.6017 35.5655 10.2819 40.625 6.16667C45.6845 2.05145 50.6429 -0.00410496 55.5 6.15436e-06C60.4583 6.15436e-06 65.443 2.05556 70.4539 6.16667C75.4649 10.2778 80.0184 15.5976 84.1146 22.126C88.2108 28.6544 91.5501 35.9249 94.1325 43.9375C96.7149 51.9501 98.004 59.9153 98 67.8333C98 79.8583 93.8775 90.06 85.6325 98.4385C77.3875 106.817 67.3433 111.004 55.5 111ZM55.5 98.6667C63.8988 98.6667 71.059 95.6594 76.9807 89.6448C82.9024 83.6303 85.8612 76.3598 85.8571 67.8333C85.8571 61.975 84.8695 55.8083 82.8943 49.3333C80.919 42.8583 78.4399 36.8726 75.4568 31.376C72.4737 25.8794 69.2113 21.3305 65.6696 17.7292C62.128 14.1278 58.7381 12.3292 55.5 12.3333C52.3631 12.3333 48.9995 14.1319 45.4093 17.7292C41.819 21.3264 38.5304 25.8753 35.5432 31.376C32.5561 36.8767 30.0769 42.8624 28.1057 49.3333C26.1345 55.8042 25.1469 61.9709 25.1429 67.8333C25.1429 76.3639 28.1037 83.6364 34.0254 89.651C39.947 95.6656 47.1052 98.6708 55.5 98.6667ZM61.5714 92.5C63.2917 92.5 64.7346 91.908 65.9004 90.724C67.0661 89.54 67.6469 88.0764 67.6429 86.3333C67.6388 84.5902 67.0559 83.1267 65.8943 81.9427C64.7326 80.7587 63.2917 80.1667 61.5714 80.1667C56.5119 80.1667 52.2113 78.3681 48.6696 74.7708C45.128 71.1736 43.3571 66.8056 43.3571 61.6667C43.3571 59.9194 42.7743 58.4559 41.6086 57.276C40.4429 56.0961 39.0019 55.5041 37.2857 55.5C35.5695 55.4959 34.1286 56.0879 32.9629 57.276C31.7971 58.4641 31.2143 59.9277 31.2143 61.6667C31.2143 70.1972 34.1751 77.4698 40.0968 83.4843C46.0185 89.4989 53.1767 92.5041 61.5714 92.5Z" fill="white"/>
</svg>
