<svg width="24" height="24" viewBox="0 0 24 24" fill="none" xmlns="http://www.w3.org/2000/svg">
<path d="M15.3334 20.3334C13.9445 20.3334 12.764 19.8473 11.7917 18.8751C10.8195 17.9029 10.3334 16.7223 10.3334 15.3334C10.3334 13.9445 10.8195 12.764 11.7917 11.7917C12.764 10.8195 13.9445 10.3334 15.3334 10.3334C16.7223 10.3334 17.9029 10.8195 18.8751 11.7917C19.8473 12.764 20.3334 13.9445 20.3334 15.3334C20.3334 16.7223 19.8473 17.9029 18.8751 18.8751C17.9029 19.8473 16.7223 20.3334 15.3334 20.3334ZM15.3334 18.6667C16.2501 18.6667 17.0348 18.3404 17.6876 17.6876C18.3404 17.0348 18.6667 16.2501 18.6667 15.3334C18.6667 14.4167 18.3404 13.632 17.6876 12.9792C17.0348 12.3265 16.2501 12.0001 15.3334 12.0001C14.4167 12.0001 13.632 12.3265 12.9792 12.9792C12.3265 13.632 12.0001 14.4167 12.0001 15.3334C12.0001 16.2501 12.3265 17.0348 12.9792 17.6876C13.632 18.3404 14.4167 18.6667 15.3334 18.6667ZM5.33341 18.6667C4.87508 18.6667 4.48286 18.5037 4.15675 18.1776C3.83064 17.8515 3.6673 17.459 3.66675 17.0001V10.6667C3.66675 10.5556 3.6773 10.4445 3.69841 10.3334C3.71953 10.2223 3.75064 10.1112 3.79175 10.0001L5.45841 6.16675H5.33341C5.0973 6.16675 4.89953 6.08675 4.74008 5.92675C4.58064 5.76675 4.50064 5.56897 4.50008 5.33341V4.50008C4.50008 4.26397 4.58008 4.06619 4.74008 3.90675C4.90008 3.7473 5.09786 3.6673 5.33341 3.66675H11.1667C11.4029 3.66675 11.6009 3.74675 11.7609 3.90675C11.9209 4.06675 12.0006 4.26453 12.0001 4.50008V5.33341C12.0001 5.56953 11.9201 5.76758 11.7601 5.92758C11.6001 6.08758 11.4023 6.1673 11.1667 6.16675H11.0417L12.4167 9.33341C12.1529 9.4723 11.9029 9.61814 11.6667 9.77091C11.4306 9.92369 11.2084 10.0973 11.0001 10.2917L9.25008 6.16675H7.25008L5.33341 10.6667V17.0001H8.87508C8.94453 17.2917 9.03814 17.5801 9.15591 17.8651C9.27369 18.1501 9.41619 18.4173 9.58341 18.6667H5.33341ZM15.3334 9.50008C14.7501 9.50008 14.257 9.29869 13.8542 8.89591C13.4515 8.49314 13.2501 8.00008 13.2501 7.41675C13.2501 6.83341 13.4515 6.34036 13.8542 5.93758C14.257 5.5348 14.7501 5.33341 15.3334 5.33341V9.50008ZM15.3334 9.50008C15.3334 8.91675 15.5348 8.42369 15.9376 8.02091C16.3404 7.61814 16.8334 7.41675 17.4167 7.41675C18.0001 7.41675 18.4931 7.61814 18.8959 8.02091C19.2987 8.42369 19.5001 8.91675 19.5001 9.50008H15.3334Z" fill="black"/>
</svg>
