<svg width="24" height="24" viewBox="0 0 24 24" fill="none" xmlns="http://www.w3.org/2000/svg">
<mask id="mask0_1017_9682" style="mask-type:alpha" maskUnits="userSpaceOnUse" x="2" y="2" width="20" height="20">
<rect x="2" y="2" width="20" height="20" fill="#D9D9D9"/>
</mask>
<g mask="url(#mask0_1017_9682)">
<path d="M9.1875 19.5C7.88194 19.5 6.77431 19.0451 5.86458 18.1354C4.95486 17.2257 4.5 16.1181 4.5 14.8125C4.5 14.1875 4.61806 13.5903 4.85417 13.0208C5.09028 12.4514 5.43056 11.9444 5.875 11.5L11.5 5.875C11.9444 5.43056 12.4514 5.09028 13.0208 4.85417C13.5903 4.61806 14.1875 4.5 14.8125 4.5C16.1181 4.5 17.2257 4.95486 18.1354 5.86458C19.0451 6.77431 19.5 7.88194 19.5 9.1875C19.5 9.8125 19.3819 10.4097 19.1458 10.9792C18.9097 11.5486 18.5694 12.0556 18.125 12.5L12.5 18.125C12.0556 18.5694 11.5486 18.9097 10.9792 19.1458C10.4097 19.3819 9.8125 19.5 9.1875 19.5ZM14.7292 13.5417L16.9583 11.3333C17.2361 11.0556 17.4514 10.7292 17.6042 10.3542C17.7569 9.97917 17.8333 9.59028 17.8333 9.1875C17.8333 8.35417 17.5382 7.64236 16.9479 7.05208C16.3576 6.46181 15.6458 6.16667 14.8125 6.16667C14.4097 6.16667 14.0208 6.24306 13.6458 6.39583C13.2708 6.54861 12.9444 6.76389 12.6667 7.04167L10.4583 9.27083L14.7292 13.5417ZM9.1875 17.8333C9.59028 17.8333 9.97917 17.7569 10.3542 17.6042C10.7292 17.4514 11.0556 17.2361 11.3333 16.9583L13.5417 14.7292L9.27083 10.4583L7.04167 12.6667C6.76389 12.9444 6.54861 13.2708 6.39583 13.6458C6.24306 14.0208 6.16667 14.4097 6.16667 14.8125C6.16667 15.6458 6.46181 16.3576 7.05208 16.9479C7.64236 17.5382 8.35417 17.8333 9.1875 17.8333Z" fill="#1C1B1F"/>
</g>
</svg>
